<?xml version="1.0" standalone="no"?>
<!DOCTYPE svg PUBLIC "-//W3C//DTD SVG 20010904//EN"
 "http://www.w3.org/TR/2001/REC-SVG-20010904/DTD/svg10.dtd">
<svg version="1.0" xmlns="http://www.w3.org/2000/svg"
 width="542.000000pt" height="542.000000pt" viewBox="0 0 542.000000 542.000000"
 preserveAspectRatio="xMidYMid meet">

<g transform="translate(0.000000,542.000000) scale(0.100000,-0.100000)"
fill="#000000" stroke="none">
<path d="M1276 4654 c-256 -62 -434 -292 -412 -534 20 -224 224 -362 511 -347
173 10 308 69 411 180 61 66 94 124 119 212 23 77 17 211 -13 277 -44 99 -148
179 -279 213 -72 19 -257 18 -337 -1z"/>
<path d="M2145 4638 c-5 -13 -235 -958 -235 -965 0 -1 -271 -3 -603 -3 l-602
0 -108 -472 c-60 -260 -172 -745 -248 -1078 -145 -625 -302 -1309 -314 -1369
l-7 -34 138 6 c77 4 173 14 214 22 397 79 684 339 809 732 17 54 92 366 166
693 74 327 146 640 158 695 l24 100 102 3 103 3 -7 -28 c-11 -42 -90 -380
-210 -896 -86 -372 -94 -532 -36 -705 39 -118 89 -200 178 -292 210 -221 521
-331 1008 -355 173 -9 550 16 572 39 2 2 45 187 97 412 l93 409 -311 6 c-297
5 -313 6 -364 28 -71 32 -107 76 -122 147 -17 80 0 184 118 734 l98 455 1186
3 1186 2 7 33 c4 17 40 178 81 357 41 178 74 330 74 337 0 10 -235 13 -1178
15 l-1179 3 109 470 c59 259 108 478 108 488 0 16 -33 17 -550 17 -431 0 -552
-3 -555 -12z"/>
</g>
</svg>
